<?xml version="1.0" encoding="UTF-8"?>
<svg version="1.1" xmlns="http://www.w3.org/2000/svg" width="500" height="500">
<path d="M0 0 C11.88 0 23.76 0 36 0 C37.71294899 3.42589799 37.18119745 7.35958214 37.20532227 11.13134766 C37.21522186 12.07773605 37.22512146 13.02412445 37.23532104 13.99919128 C37.26699022 17.13745596 37.29171488 20.27573579 37.31640625 23.4140625 C37.3369711 25.58597209 37.35796744 27.75787764 37.37937927 29.92977905 C37.43464839 35.65410085 37.48403631 41.37845905 37.53222656 47.10284424 C37.58240628 52.94099173 37.63811074 58.77908617 37.69335938 64.6171875 C37.80100014 76.07807971 37.90243194 87.53901793 38 99 C44.3470067 100.08368445 44.3470067 100.08368445 50 97.4375 C51.26650391 96.60798828 51.26650391 96.60798828 52.55859375 95.76171875 C58.61041907 91.64895148 58.61041907 91.64895148 63 86 C63.66 86 64.32 86 65 86 C65.37125 85.2265625 65.37125 85.2265625 65.75 84.4375 C67.39581616 81.22815849 69.1976096 78.12414336 71 75 C71.66 75 72.32 75 73 75 C73.11730469 74.43925781 73.23460937 73.87851563 73.35546875 73.30078125 C74.07339639 70.73799714 75.12969081 68.57142812 76.3125 66.1875 C80.92196244 56.15119951 84.34360402 45.14530546 83 34 C81.77671023 32.54266862 81.77671023 32.54266862 78.10546875 32.97265625 C75.63686218 33.01088243 73.1692459 33.0629732 70.70117188 33.12695312 C69.90646484 33.13791016 69.11175781 33.14886719 68.29296875 33.16015625 C67.20278442 33.18541382 67.20278442 33.18541382 66.09057617 33.21118164 C63.68561409 32.96824199 62.08463756 32.19176728 60 31 C60 30.34 60 29.68 60 29 C59.34 29 58.68 29 58 29 C58 28.34 58 27.68 58 27 C57.34 27 56.68 27 56 27 C53.82509885 23.47873148 53.73122213 20.59357533 53.75 16.5 C53.74226563 14.81390625 53.74226563 14.81390625 53.734375 13.09375 C53.98715705 10.14958257 54.46635459 8.48304495 56 6 C56.66 6 57.32 6 58 6 C58 5.34 58 4.68 58 4 C63.77487636 0.64007194 68.28306149 -1.17183999 75 0 C79.97094518 1.65371995 82.73337121 4.36145841 85.17578125 8.92578125 C87.61166741 15.05590235 88.29177453 20.43406214 88.1875 26.9375 C88.1865332 28.07735352 88.1865332 28.07735352 88.18554688 29.24023438 C88.1471576 34.23510515 87.70317518 39.0552721 87 44 C87.43570313 43.46890625 87.87140625 42.9378125 88.3203125 42.390625 C94.45664777 35.11202819 100.19673867 30.54477256 109.953125 29.62890625 C120.21761665 29.3394649 127.49373022 30.41144185 135.625 37.1875 C137 39 137 39 137 41 C137.66 41 138.32 41 139 41 C139.66 41.99 140.32 42.98 141 44 C141.12357051 39.07048719 141.21432177 34.14187468 141.2746582 29.21118164 C141.29980792 27.53393859 141.33393259 25.8568052 141.37719727 24.17993164 C141.4378346 21.76941915 141.46620284 19.36035448 141.48828125 16.94921875 C141.52699089 15.82407112 141.52699089 15.82407112 141.56648254 14.67619324 C141.62375647 12.30307266 141.62375647 12.30307266 141 9 C138.58285514 7.07706864 138.58285514 7.07706864 136 6 C136 5.34 136 4.68 136 4 C145.48990673 1.70933286 155.20591322 -0.20806861 165 0 C166.20953395 2.41906791 166.15679908 4.02166308 166.20532227 6.72509766 C166.22526749 7.70596344 166.24521271 8.68682922 166.26576233 9.69741821 C166.29083107 11.28965714 166.29083107 11.28965714 166.31640625 12.9140625 C166.33718735 13.99883881 166.35796844 15.08361511 166.37937927 16.20126343 C166.44490634 19.67577621 166.50377447 23.15036624 166.5625 26.625 C166.60568221 28.97657058 166.6492964 31.32813326 166.69335938 33.6796875 C166.80059093 39.4530427 166.90235144 45.2264752 167 51 C167.33338379 50.3822168 167.66676758 49.76443359 168.01025391 49.12792969 C168.45288574 48.31743164 168.89551758 47.50693359 169.3515625 46.671875 C169.78807129 45.8684668 170.22458008 45.06505859 170.67431641 44.23730469 C174.8463609 37.19630731 182.17142706 32.06112369 190 30 C192.83968958 29.72980369 195.64935149 29.71994044 198.5 29.75 C199.23347656 29.74226563 199.96695313 29.73453125 200.72265625 29.7265625 C205.1968584 29.74257038 208.78628625 30.31984832 213 32 C213 32.66 213 33.32 213 34 C213.61875 34.144375 214.2375 34.28875 214.875 34.4375 C217 35 217 35 219 36 C219 36.66 219 37.32 219 38 C219.59425781 38.2371875 220.18851563 38.474375 220.80078125 38.71875 C223.48171395 40.28064329 224.53871721 41.88907403 226.1875 44.5 C226.69667969 45.2940625 227.20585937 46.088125 227.73046875 46.90625 C229 49 229 49 230 51 C230.34571944 44.22544454 230.34571944 44.22544454 228 38 C225.95894361 37.11306697 225.95894361 37.11306697 224 37 C224.33 36.01 224.66 35.02 225 34 C228.66437768 33.4621552 232.33170064 32.94785271 236 32.4375 C237.54494141 32.21030273 237.54494141 32.21030273 239.12109375 31.97851562 C243.69071797 31.35273906 247.8670344 30.80579214 252.4453125 31.53125 C256.19493245 32.02570538 257.58719557 31.75190816 260.875 30.0625 C265.99507571 27.80178965 270.44622704 27.03287747 276 28 C279.85544798 29.99657127 281.59805092 31.39707638 284 35 C284.38499891 36.65549531 284.72793135 38.3222433 285 40 C285.94875 39.0925 286.8975 38.185 287.875 37.25 C295.41758364 30.97195208 302.43104521 29.63255512 312.0625 29.5 C312.90127686 29.48146973 313.74005371 29.46293945 314.60424805 29.44384766 C320.84136352 29.50613942 325.50798425 31.09212132 331 34 C331 34.66 331 35.32 331 36 C331.598125 36.226875 332.19625 36.45375 332.8125 36.6875 C335.64960318 38.38976191 336.51475767 40.05929037 338 43 C338.38526917 45.5552063 338.38526917 45.5552063 338.40063477 48.29345703 C338.41397354 49.3244754 338.42731232 50.35549377 338.4410553 51.41775513 C338.44122902 53.07108353 338.44122902 53.07108353 338.44140625 54.7578125 C338.46121803 56.46781937 338.46121803 56.46781937 338.48143005 58.21237183 C338.52230003 61.84993965 338.54399647 65.48725455 338.5625 69.125 C338.58626737 72.7698101 338.61433887 76.41438132 338.65428162 80.05905151 C338.67868443 82.32599559 338.69350565 84.59306677 338.69789124 86.86013794 C338.71317116 88.39720901 338.71317116 88.39720901 338.72875977 89.96533203 C338.73303482 90.86736359 338.73730988 91.76939514 338.74171448 92.69876099 C338.85294009 95.2760474 338.85294009 95.2760474 341 98 C341.99 98.33 342.98 98.66 344 99 C344 99.99 344 100.98 344 102 C334.6416621 104.05805771 325.59441508 105.53079589 316 106 C315.34 104.35 314.68 102.7 314 101 C312.948125 101.639375 311.89625 102.27875 310.8125 102.9375 C307.82358835 104.6258473 305.4603878 105.67043926 302 106 C301.35417969 106.06316406 300.70835937 106.12632812 300.04296875 106.19140625 C293.28383119 106.55836468 286.54023365 105.09356866 281.328125 100.5390625 C276.76677433 95.25326202 275.67635405 91.21735909 275.796875 84.41796875 C276.02951457 81.64866306 276.69166195 79.45313384 278 77 C278.66 77 279.32 77 280 77 C280.21398437 76.25363281 280.42796875 75.50726563 280.6484375 74.73828125 C282.37846805 71.23321937 284.28892773 70.16586844 287.625 68.1875 C288.62789063 67.58292969 289.63078125 66.97835937 290.6640625 66.35546875 C291.82035156 65.68451172 291.82035156 65.68451172 293 65 C290.03 63.68 287.06 62.36 284 61 C284 60.34 284 59.68 284 59 C283.34 59 282.68 59 282 59 C281.01 56.36 280.02 53.72 279 51 C278.2575 51.5259375 278.2575 51.5259375 277.5 52.0625 C273.84234542 53.43412047 270.66949842 53.06352066 267 52 C263.5625 50 263.5625 50 261 47 C260.04401896 43.33435085 260 39.76494326 260 36 C258.02 36 256.04 36 254 36 C254.06118725 44.03223189 254.13827521 52.06408594 254.23571491 60.09595203 C254.28045871 63.82542069 254.31970559 67.55477911 254.34643555 71.28442383 C254.37242913 74.88320552 254.41280248 78.48156386 254.46318626 82.08008385 C254.47988191 83.45355657 254.4913794 84.82710257 254.49761391 86.20066261 C254.50722475 88.1232319 254.53696665 90.04566877 254.56762695 91.96801758 C254.57873001 93.06277908 254.58983307 94.15754059 254.60127258 95.28547668 C255.05058126 98.34435561 255.70821888 99.05825483 258 101 C258 101.66 258 102.32 258 103 C258.66 103 259.32 103 260 103 C260 103.66 260 104.32 260 105 C248.12 105 236.24 105 224 105 C224 104.34 224 103.68 224 103 C225.65002828 101.64613064 227.3174387 100.31321858 229 99 C230.38226016 96.23547967 230.09525387 93.9538637 230.0625 90.875 C230.05347656 89.77929688 230.04445313 88.68359375 230.03515625 87.5546875 C230.02355469 86.71164063 230.01195312 85.86859375 230 85 C229.50693359 85.8353125 229.50693359 85.8353125 229.00390625 86.6875 C223.16851339 96.04943109 216.32755866 102.52423932 205.6875 105.6875 C197.75301688 106.61011432 191.43087011 105.93283831 184 103 C183.01 102.67 182.02 102.34 181 102 C181 101.34 181 100.68 181 100 C179.824375 99.62875 179.824375 99.62875 178.625 99.25 C175.67682892 97.84610901 175.0975223 96.99324263 174 94 C173.34 94 172.68 94 172 94 C170.35 91.03 168.7 88.06 167 85 C166.97284617 86.74991334 166.95353449 88.49994945 166.9375 90.25 C166.92009766 91.71179688 166.92009766 91.71179688 166.90234375 93.203125 C166.98909679 95.68773219 167.16331307 97.6677352 168 100 C169.30915279 101.03145371 170.64082143 102.03542166 172 103 C172 103.66 172 104.32 172 105 C160.12 105 148.24 105 136 105 C136 104.34 136 103.68 136 103 C138.475 102.01 138.475 102.01 141 101 C141 98.36 141 95.72 141 93 C140.54625 93.70125 140.0925 94.4025 139.625 95.125 C133.49801568 101.83550663 125.51411462 105.52662042 116.52734375 106.1796875 C106.88712064 106.44141301 100.70943986 103.49820517 93 98 C91.515 97.01 91.515 97.01 90 96 C90 95.34 90 94.68 90 94 C89.34 94 88.68 94 88 94 C82.92248544 85.94827789 80.55846881 78.36448362 79 69 C78.70867187 69.54527344 78.41734375 70.09054688 78.1171875 70.65234375 C71.77891675 82.31237013 71.77891675 82.31237013 68 87 C67.34 87 66.68 87 66 87 C65.74089844 87.59039062 65.48179687 88.18078125 65.21484375 88.7890625 C61.01995704 96.42348655 51.11587088 101.95305546 43.0859375 104.640625 C33.34751282 106.31840603 25.31515571 105.36461658 17 100 C17 99.34 17 98.68 17 98 C16.34 98 15.68 98 15 98 C9.33801878 87.6197011 8.70916725 78.02496316 8.69503975 66.43562698 C8.69134333 63.99756408 8.67453387 61.55989613 8.65428162 59.12191772 C8.59914363 52.19740106 8.56806468 45.27283099 8.54370117 38.34814453 C8.5278504 34.0971673 8.49767625 29.84648052 8.45893669 25.59565353 C8.44728391 23.97933398 8.44135632 22.36296266 8.44125557 20.7466011 C8.44106404 18.4943306 8.42284312 16.24286795 8.40063477 13.99072266 C8.39556412 12.70992828 8.39049347 11.42913391 8.38526917 10.10952759 C8.25641453 7.03911567 8.25641453 7.03911567 6.64292908 5.10604858 C4.50026532 3.66356987 2.53696649 3.34283331 0 3 C0 2.01 0 1.02 0 0 Z M110.375 33.5 C103.93214636 40.2819512 104.02173543 49.11876125 103 58 C110.26 58 117.52 58 125 58 C125 50.24236099 124.3146582 43.10283901 121 36 C120.34 36 119.68 36 119 36 C118.67 35.01 118.34 34.02 118 33 C114.67806263 31.86105004 113.48298566 31.7240082 110.375 33.5 Z M192 36 C184.12541099 51.74917803 185.34136239 75.17428748 189 92 C190.10197757 95.15030992 191.37365932 98.08679752 193 101 C193.66 101 194.32 101 195 101 C195 101.66 195 102.32 195 103 C196.98 103 198.96 103 201 103 C201.66 101.68 202.32 100.36 203 99 C203.66 99 204.32 99 205 99 C209.29868403 89.01708704 209.34070007 78.27288847 209.3125 67.5625 C209.32861328 66.34240234 209.34472656 65.12230469 209.36132812 63.86523438 C209.36690484 53.37543912 208.64109802 41.59436215 202 33 C197.4760436 30.79602124 195.23679094 32.50767293 192 36 Z M301 33 C301 33.66 301 34.32 301 35 C300.34 35 299.68 35 299 35 C299 36.98 299 38.96 299 41 C299.66 41 300.32 41 301 41 C301.309375 41.804375 301.61875 42.60875 301.9375 43.4375 C302.76335345 45.89080405 302.76335345 45.89080405 304 47 C304.56660809 51.49571006 304.63647193 54.95436754 302.25 58.875 C300.2492146 60.76463066 298.27619758 62.45543736 296 64 C301.70438295 62.90051576 306.66028487 61.34198032 312 59 C313.60060926 58.54965909 315.20514169 58.11312448 316.8125 57.6875 C323.15651486 55.86104549 329.30333413 52.69666587 334 48 C334.4830076 44.37744301 334.32005446 42.53769149 332.4375 39.375 C325.61793476 32.73029541 318.68065174 31.81445029 309.4140625 31.8984375 C306.55038241 32.01891595 303.80368108 32.40975135 301 33 Z M103 61 C104.38085311 69.28511869 105.33739003 74.90369319 109 82 C109.66666667 83.33333333 110.33333333 84.66666667 111 86 C111.66 86 112.32 86 113 86 C113 86.66 113 87.32 113 88 C117.43434638 92.17350247 121.47544837 93.7745936 127.5 94.3125 C132.53522706 93.86292616 135.54789136 91.98939561 139.66015625 89.1875 C143.33027067 84.18781157 142.52994684 79.20481212 142.3125 73.1875 C142.209375 69.165625 142.10625 65.14375 142 61 C129.13 61 116.26 61 103 61 Z M310.125 63.3125 C309.07699219 63.95638672 309.07699219 63.95638672 308.0078125 64.61328125 C306.06468098 65.95532734 304.49490077 67.17133208 303 69 C303 69.99 303 70.98 303 72 C302.34 72 301.68 72 301 72 C299.28063349 78.66254523 299.12467997 85.67429592 302 92 C303.5633326 94.89177071 303.5633326 94.89177071 306 97 C310.60137804 98.21868737 310.60137804 98.21868737 315 97 C315 85.12 315 73.24 315 61 C313.1511545 61 311.65268589 62.36399172 310.125 63.3125 Z " fill="#FB3333" transform="translate(78,158)"/>
<path d="M0 0 C1.20953395 2.41906791 1.15679908 4.02166308 1.20532227 6.72509766 C1.2352401 8.19639633 1.2352401 8.19639633 1.26576233 9.69741821 C1.28247482 10.75891083 1.29918732 11.82040344 1.31640625 12.9140625 C1.33718735 13.99883881 1.35796844 15.08361511 1.37937927 16.20126343 C1.44490634 19.67577621 1.50377447 23.15036624 1.5625 26.625 C1.60568221 28.97657058 1.6492964 31.32813326 1.69335938 33.6796875 C1.80059093 39.4530427 1.90235144 45.2264752 2 51 C2.46853394 50.05265991 2.46853394 50.05265991 2.9465332 49.08618164 C3.37281006 48.26496826 3.79908691 47.44375488 4.23828125 46.59765625 C4.65376221 45.78047119 5.06924316 44.96328613 5.49731445 44.12133789 C7.25868327 41.6348174 8.26546772 41.14281814 11.1875 40.4375 C15 40 15 40 17 40 C17.33 38.35 17.66 36.7 18 35 C20.86724686 35.57344937 21.8614515 35.8614515 24 38 C24.265625 41.08203125 24.265625 41.08203125 24.25 44.8125 C24.25773437 46.64748047 24.25773437 46.64748047 24.265625 48.51953125 C24.01467894 51.80766273 23.41563823 54.05075369 22 57 C21.34 57 20.68 57 20 57 C20.40774142 61.53502054 20.81672625 66.06992669 21.22680664 70.60473633 C21.36581083 72.14376885 21.50448976 73.68283079 21.64282227 75.22192383 C21.8430325 77.44881095 22.0443879 79.67559164 22.24609375 81.90234375 C22.31049652 82.61901215 22.37489929 83.33568054 22.44125366 84.07406616 C22.7872857 87.87234951 23.18775895 91.65692004 23.66015625 95.44140625 C24 99 24 99 23 101 C21.02 101 19.04 101 17 101 C17 100.34 17 99.68 17 99 C15.865625 98.731875 14.73125 98.46375 13.5625 98.1875 C11.7990625 97.5996875 11.7990625 97.5996875 10 97 C9.67 96.01 9.34 95.02 9 94 C8.34 94 7.68 94 7 94 C5.35 91.03 3.7 88.06 2 85 C1.97284617 86.74991334 1.95353449 88.49994945 1.9375 90.25 C1.92589844 91.22453125 1.91429687 92.1990625 1.90234375 93.203125 C1.98909679 95.68773219 2.16331307 97.6677352 3 100 C4.30915279 101.03145371 5.64082143 102.03542166 7 103 C7 103.66 7 104.32 7 105 C-4.88 105 -16.76 105 -29 105 C-29 104.34 -29 103.68 -29 103 C-26.525 102.01 -26.525 102.01 -24 101 C-24 100.34 -24 99.68 -24 99 C-23.34 99 -22.68 99 -22 99 C-22.07726318 98.30487305 -22.15452637 97.60974609 -22.23413086 96.89355469 C-23.05056266 88.61911019 -22.93926852 80.5475688 -22.5625 72.25 C-22.51029297 70.96867187 -22.45808594 69.68734375 -22.40429688 68.3671875 C-22.27612744 65.24451395 -22.1390025 62.12221009 -22 59 C-27.61 59 -33.22 59 -39 59 C-39.125 50.375 -39.125 50.375 -38 47 C-37.34 47 -36.68 47 -36 47 C-35.505 44.03 -35.505 44.03 -35 41 C-34.34 41 -33.68 41 -33 41 C-33 40.34 -33 39.68 -33 39 C-26.25 40.625 -26.25 40.625 -24 44 C-23.87642949 39.07048719 -23.78567823 34.14187468 -23.7253418 29.21118164 C-23.70019208 27.53393859 -23.66606741 25.8568052 -23.62280273 24.17993164 C-23.5621654 21.76941915 -23.53379716 19.36035448 -23.51171875 16.94921875 C-23.47300911 15.82407112 -23.47300911 15.82407112 -23.43351746 14.67619324 C-23.37624353 12.30307266 -23.37624353 12.30307266 -24 9 C-26.41714486 7.07706864 -26.41714486 7.07706864 -29 6 C-29 5.34 -29 4.68 -29 4 C-19.51009327 1.70933286 -9.79408678 -0.20806861 0 0 Z " fill="#FC3232" transform="translate(243,158)"/>
<path d="M0 0 C8.91 0 17.82 0 27 0 C28.66124377 3.32248755 28.17159193 7.04623167 28.18945312 10.70068359 C28.19774643 11.60163254 28.20603973 12.50258148 28.21458435 13.43083191 C28.23200755 15.3913432 28.24716812 17.35187557 28.26036072 19.31241989 C28.28135392 22.41379025 28.30838063 25.51505512 28.33703613 28.61636353 C28.39679783 35.20253529 28.44890674 41.78875604 28.5 48.375 C28.55920891 55.99852907 28.62152541 63.62200639 28.69187927 71.24544144 C28.71846543 74.3032084 28.73927521 77.36098049 28.7598877 80.41879272 C28.77649226 82.29270678 28.79336424 84.1666185 28.81054688 86.04052734 C28.8168235 87.31867058 28.8168235 87.31867058 28.82322693 88.62263489 C28.83157059 89.40775955 28.83991425 90.19288422 28.84851074 91.00180054 C28.85366447 91.68132971 28.85881821 92.36085888 28.86412811 93.06097984 C29.00950977 95.13571336 29.43960176 97.00061946 30 99 C29.01 99 28.02 99 27 99 C27.66 99.66 28.32 100.32 29 101 C28 102 28 102 25.93359375 102.09765625 C24.69802734 102.08025391 24.69802734 102.08025391 23.4375 102.0625 C22.19806641 102.04896484 22.19806641 102.04896484 20.93359375 102.03515625 C19.97646484 102.01775391 19.97646484 102.01775391 19 102 C19.495 100.515 19.495 100.515 20 99 C17.03 99.495 17.03 99.495 14 100 C14 99.34 14 98.68 14 98 C13.0925 98 12.185 98 11.25 98 C8 97 8 97 6.78125 95.46875 C1.31206452 85.02757771 1.67987028 73.83602262 1.62109375 62.3828125 C1.60489609 60.67649403 1.58771376 58.97018465 1.56959534 57.2638855 C1.52414986 52.79683634 1.48921217 48.32977466 1.45739746 43.86260986 C1.40528284 36.69237328 1.34036486 29.52226964 1.26918221 22.35219955 C1.24637464 19.85111445 1.23009457 17.35004639 1.21446228 14.84890747 C1.20105871 13.32130744 1.18744418 11.79370924 1.17358398 10.26611328 C1.17097061 9.57103165 1.16835724 8.87595001 1.16566467 8.1598053 C1.13330262 5.16211062 0.95644857 2.86934571 0 0 Z " fill="#FE3131" transform="translate(85,159)"/>
<path d="M0 0 C2.17362568 3.26043853 2.25311844 4.20066577 2.27124023 7.97460938 C2.28142685 8.98575806 2.29161346 9.99690674 2.30210876 11.03869629 C2.30424881 12.12936401 2.30638885 13.22003174 2.30859375 14.34375 C2.33374656 16.64453386 2.35914468 18.94531505 2.38476562 21.24609375 C2.41356216 24.88036451 2.43757516 28.514589 2.45629883 32.14892578 C2.47788518 35.65160859 2.51731328 39.15375221 2.55859375 42.65625 C2.55870956 43.74691772 2.55882538 44.83758545 2.5589447 45.96130371 C2.57228348 46.97245239 2.58562225 47.98360107 2.59936523 49.02539062 C2.60443588 49.9156897 2.60950653 50.80598877 2.61473083 51.7232666 C3.07415837 54.43823602 3.94110674 55.2529131 6 57 C6 57.33 6 57.66 6 58 C3.14633646 58.33821197 0.29219404 58.6706978 -2.5625 59 C-3.76229492 59.14308594 -3.76229492 59.14308594 -4.98632812 59.2890625 C-5.77587891 59.37929688 -6.56542969 59.46953125 -7.37890625 59.5625 C-8.0963501 59.64628906 -8.81379395 59.73007812 -9.55297852 59.81640625 C-12.6937528 60.05205049 -15.85039823 60 -19 60 C-19 45.48 -19 30.96 -19 16 C-17.68 15.67 -16.36 15.34 -15 15 C-15 14.34 -15 13.68 -15 13 C-14.01 13 -13.02 13 -12 13 C-12 12.01 -12 11.02 -12 10 C-8.14243493 7.84694043 -5.44870215 6.60746746 -1 7 C-0.67 4.69 -0.34 2.38 0 0 Z " fill="#FD3131" transform="translate(413,202)"/>
<path d="M0 0 C5.91123225 2.91772361 8.03701223 7.50186673 10.109375 13.51171875 C11.14530496 17.88762979 11.27481769 21.80598388 11.203125 26.27734375 C11.20248047 27.03724609 11.20183594 27.79714844 11.20117188 28.58007812 C11.17206977 32.36658557 10.96718 36.02971457 10.44140625 39.78125 C9.70421659 43.17561496 9.70421659 43.17561496 11.015625 45.33984375 C10.025625 45.33984375 9.035625 45.33984375 8.015625 45.33984375 C8.015625 46.32984375 8.015625 47.31984375 8.015625 48.33984375 C7.355625 48.33984375 6.695625 48.33984375 6.015625 48.33984375 C6.03882813 48.96632812 6.06203125 49.5928125 6.0859375 50.23828125 C6.11300781 51.46417969 6.11300781 51.46417969 6.140625 52.71484375 C6.16382813 53.52695313 6.18703125 54.3390625 6.2109375 55.17578125 C6.015625 57.33984375 6.015625 57.33984375 4.015625 59.33984375 C2.3446056 53.82547973 4.25852053 49.61115715 6.015625 44.33984375 C6.10900718 42.46670711 6.14557343 40.59030013 6.140625 38.71484375 C6.14320313 37.73257813 6.14578125 36.7503125 6.1484375 35.73828125 C6.28568465 33.38759364 6.28568465 33.38759364 5.015625 32.33984375 C1.24476336 32.31336829 -2.51392622 32.36908585 -6.28320312 32.46679688 C-7.07791016 32.47775391 -7.87261719 32.48871094 -8.69140625 32.5 C-9.78159058 32.52525757 -9.78159058 32.52525757 -10.89379883 32.55102539 C-13.29876091 32.30808574 -14.89973744 31.53161103 -16.984375 30.33984375 C-16.984375 29.67984375 -16.984375 29.01984375 -16.984375 28.33984375 C-17.644375 28.33984375 -18.304375 28.33984375 -18.984375 28.33984375 C-18.984375 27.67984375 -18.984375 27.01984375 -18.984375 26.33984375 C-19.644375 26.33984375 -20.304375 26.33984375 -20.984375 26.33984375 C-23.15927615 22.81857523 -23.25315287 19.93341908 -23.234375 15.83984375 C-23.23953125 14.71578125 -23.2446875 13.59171875 -23.25 12.43359375 C-22.99721795 9.48942632 -22.51802041 7.8228887 -20.984375 5.33984375 C-20.324375 5.33984375 -19.664375 5.33984375 -18.984375 5.33984375 C-18.984375 4.67984375 -18.984375 4.01984375 -18.984375 3.33984375 C-12.65525182 -0.34255519 -7.22980531 -2.40519114 0 0 Z " fill="#FB3433" transform="translate(154.984375,158.66015625)"/>
<path d="M0 0 C1.27233924 3.39290463 0.76413268 6.26280593 0.265625 9.78515625 C-0.63522833 17.29668329 -0.30656451 23.54015324 4 30 C4 30.99 4 31.98 4 33 C3.01 33 2.02 33 1 33 C1.66 33.66 2.32 34.32 3 35 C3.33 34.67 3.66 34.34 4 34 C6.67058851 33.85884839 9.32432238 33.95752893 12 34 C12 34.99 12 35.98 12 37 C4.70101875 40.90410625 -2.49057512 42.4326142 -10.62890625 40.31640625 C-17.25238822 37.93748053 -20.52503842 35.19174831 -24.109375 29.12109375 C-26.10818804 24.36076269 -25.5418678 18.69333687 -24 13.875 C-23.67 13.25625 -23.34 12.6375 -23 12 C-22.34 12 -21.68 12 -21 12 C-20.75765625 11.24203125 -20.5153125 10.4840625 -20.265625 9.703125 C-18.16327862 5.21292841 -14.27758415 3.26502769 -10 1 C-6.42656861 0.05607473 -3.71136585 0 0 0 Z " fill="#FB3332" transform="translate(379,223)"/>
<path d="M0 0 C11.88 0 23.76 0 36 0 C37.71294899 3.42589799 37.18119745 7.35958214 37.20532227 11.13134766 C37.21522186 12.07773605 37.22512146 13.02412445 37.23532104 13.99919128 C37.26699022 17.13745596 37.29171488 20.27573579 37.31640625 23.4140625 C37.3369711 25.58597209 37.35796744 27.75787764 37.37937927 29.92977905 C37.43464839 35.65410085 37.48403631 41.37845905 37.53222656 47.10284424 C37.58240628 52.94099173 37.63811074 58.77908617 37.69335938 64.6171875 C37.80100014 76.07807971 37.90243194 87.53901793 38 99 C44.3470067 100.08368445 44.3470067 100.08368445 50 97.4375 C51.26650391 96.60798828 51.26650391 96.60798828 52.55859375 95.76171875 C58.61041907 91.64895148 58.61041907 91.64895148 63 86 C63.66 86 64.32 86 65 86 C65.37125 85.2265625 65.37125 85.2265625 65.75 84.4375 C67.39581616 81.22815849 69.1976096 78.12414336 71 75 C71.66 75 72.32 75 73 75 C73.12246094 74.44828125 73.24492187 73.8965625 73.37109375 73.328125 C74.07993611 70.70408745 75.03611256 68.2663047 76.0625 65.75 C76.42472656 64.85796875 76.78695312 63.9659375 77.16015625 63.046875 C77.57587891 62.03367187 77.57587891 62.03367187 78 61 C78.495 62.98 78.495 62.98 79 65 C79.66 65 80.32 65 81 65 C81 68.63 81 72.26 81 76 C80.67 76 80.34 76 80 76 C79.505 72.535 79.505 72.535 79 69 C78.70867187 69.54527344 78.41734375 70.09054688 78.1171875 70.65234375 C71.77891675 82.31237013 71.77891675 82.31237013 68 87 C67.34 87 66.68 87 66 87 C65.74089844 87.59039062 65.48179687 88.18078125 65.21484375 88.7890625 C61.01995704 96.42348655 51.11587088 101.95305546 43.0859375 104.640625 C33.34751282 106.31840603 25.31515571 105.36461658 17 100 C18.98 99.505 18.98 99.505 21 99 C21 99.66 21 100.32 21 101 C23.97 100.505 23.97 100.505 27 100 C27 100.66 27 101.32 27 102 C29.64 102 32.28 102 35 102 C34.01 101.01 34.01 101.01 33 100 C33.99 99.67 34.98 99.34 36 99 C35.67 98.01 35.34 97.02 35 96 C34.87927322 92.97277228 34.81453862 89.96690584 34.79467773 86.9387207 C34.78477814 86.01169342 34.77487854 85.08466614 34.76467896 84.12954712 C34.73306064 81.06165125 34.70830514 77.99373989 34.68359375 74.92578125 C34.66302452 72.80014134 34.64202805 70.67450553 34.62062073 68.5488739 C34.56539694 62.95115471 34.51598897 57.35339859 34.46777344 51.75561523 C34.41756069 46.04472563 34.36187344 40.33388974 34.30664062 34.62304688 C34.19905526 23.41540874 34.09811689 12.20772504 34 1 C25.09 1 16.18 1 7 1 C7.66 2.32 8.32 3.64 9 5 C5.61976483 5 3.16531063 4.12544378 0 3 C0 2.01 0 1.02 0 0 Z " fill="#E65B5A" transform="translate(78,158)"/>
<path d="M0 0 C13.2 0 26.4 0 40 0 C40 12.87 40 25.74 40 39 C39.67 39 39.34 39 39 39 C38.505 36.03 38.505 36.03 38 33 C37.54625 33.70125 37.0925 34.4025 36.625 35.125 C30.49801568 41.83550663 22.51411462 45.52662042 13.52734375 46.1796875 C6.62693962 46.36702879 0.37764984 45.73233186 -5 41 C-2.69 41 -0.38 41 2 41 C2 41.66 2 42.32 2 43 C6.455 42.505 6.455 42.505 11 42 C12.56272189 37.60746227 12.56272189 37.60746227 13 33 C11.05990478 31.29467677 11.05990478 31.29467677 9 30 C9.33 28.68 9.66 27.36 10 26 C10 26.66 10 27.32 10 28 C11.32258472 28.68774405 12.65986503 29.34711373 14 30 C15.093125 30.53625 16.18625 31.0725 17.3125 31.625 C22.46560124 33.54649538 26.04484259 33.7667284 31.1875 31.75 C33.99767367 30.00144749 35.89718023 28.54830439 38 26 C38.63735866 23.20942676 38.63735866 23.20942676 38.609375 20.140625 C38.63999023 19.13547852 38.67060547 18.13033203 38.70214844 17.09472656 C38.71793945 15.8259668 38.73373047 14.55720703 38.75 13.25 C38.8325 9.2075 38.915 5.165 39 1 C26.13 1 13.26 1 0 1 C0 0.67 0 0.34 0 0 Z " fill="#F73636" transform="translate(181,218)"/>
<path d="M0 0 C1.98 0 3.96 0 6 0 C6 0.66 6 1.32 6 2 C6.99 2 7.98 2 9 2 C9 2.66 9 3.32 9 4 C9.66 4 10.32 4 11 4 C11.53341184 5.57914015 12.05125763 7.16354387 12.5625 8.75 C12.85253906 9.63171875 13.14257812 10.5134375 13.44140625 11.421875 C14.01697435 14.07834316 13.89248371 15.47031106 13 18 C12.401875 18.103125 11.80375 18.20625 11.1875 18.3125 C8.92135191 18.80934534 8.92135191 18.80934534 7.6875 20.5625 C4.98124868 22.8678252 2.42330814 22.24023215 -1 22 C-3.4375 21.5 -3.4375 21.5 -5 21 C-5.12375 20.360625 -5.2475 19.72125 -5.375 19.0625 C-5.58125 18.381875 -5.7875 17.70125 -6 17 C-6.66 16.67 -7.32 16.34 -8 16 C-8.44921875 13.09375 -8.44921875 13.09375 -8.6875 9.5 C-8.77386719 8.3140625 -8.86023438 7.128125 -8.94921875 5.90625 C-8.96597656 4.9471875 -8.98273438 3.988125 -9 3 C-6.95301586 0.95301586 -2.69588759 1.29954307 0 1 C0 0.67 0 0.34 0 0 Z " fill="#FB3231" transform="translate(348,187)"/>
<path d="M0 0 C3.12729515 1.88063916 5.96015813 3.81395844 8.1875 6.75 C8.1875 7.41 8.1875 8.07 8.1875 8.75 C5.7125 7.76 5.7125 7.76 3.1875 6.75 C3.1875 7.41 3.1875 8.07 3.1875 8.75 C2.5275 8.75 1.8675 8.75 1.1875 8.75 C1.001875 10.6990625 1.001875 10.6990625 0.8125 12.6875 C0.6015625 14.90234375 0.6015625 14.90234375 0.1875 16.75 C-0.8025 17.245 -0.8025 17.245 -1.8125 17.75 C-2.1425 20.72 -2.4725 23.69 -2.8125 26.75 C-10.0725 26.75 -17.3325 26.75 -24.8125 26.75 C-24.8125 26.42 -24.8125 26.09 -24.8125 25.75 C-17.8825 25.75 -10.9525 25.75 -3.8125 25.75 C-4.286875 23.048125 -4.76125 20.34625 -5.25 17.5625 C-5.39751709 16.72050049 -5.54503418 15.87850098 -5.69702148 15.01098633 C-6.35947993 11.24781081 -7.03998911 7.49255277 -7.8125 3.75 C-8.4725 3.75 -9.1325 3.75 -9.8125 3.75 C-10.245625 3.234375 -10.67875 2.71875 -11.125 2.1875 C-12.76043777 0.47048757 -12.76043777 0.47048757 -15.3125 0.8125 C-18.36393627 1.9567886 -19.18358122 2.9575678 -20.8125 5.75 C-22.497523 9.49088118 -23.31451963 13.01312761 -23.9375 17.0625 C-24.10507813 18.13113281 -24.27265625 19.19976562 -24.4453125 20.30078125 C-24.56648437 21.10902344 -24.68765625 21.91726562 -24.8125 22.75 C-25.4725 22.42 -26.1325 22.09 -26.8125 21.75 C-26.4825 17.79 -26.1525 13.83 -25.8125 9.75 C-25.1525 9.75 -24.4925 9.75 -23.8125 9.75 C-24.1425 7.77 -24.4725 5.79 -24.8125 3.75 C-27.7825 3.255 -27.7825 3.255 -30.8125 2.75 C-30.8125 3.41 -30.8125 4.07 -30.8125 4.75 C-32.4625 5.08 -34.1125 5.41 -35.8125 5.75 C-27.61870385 -4.22505619 -11.17296741 -5.35440426 0 0 Z " fill="#F04343" transform="translate(206.8125,190.25)"/>
<path d="M0 0 C0.74701172 -0.01224609 1.49402344 -0.02449219 2.26367188 -0.03710938 C6.80272437 -0.04906474 10.41249142 0.46798145 14.6875 2.1875 C14.6875 2.8475 14.6875 3.5075 14.6875 4.1875 C15.615625 4.4040625 15.615625 4.4040625 16.5625 4.625 C18.6875 5.1875 18.6875 5.1875 20.6875 6.1875 C20.6875 6.8475 20.6875 7.5075 20.6875 8.1875 C21.3475 8.5175 22.0075 8.8475 22.6875 9.1875 C20.7075 9.5175 18.7275 9.8475 16.6875 10.1875 C16.1925 9.1975 16.1925 9.1975 15.6875 8.1875 C14.04386866 7.46590576 12.37699614 6.79398579 10.6875 6.1875 C10.3575 7.1775 10.0275 8.1675 9.6875 9.1875 C10.3475 9.5175 11.0075 9.8475 11.6875 10.1875 C11.67589844 10.88617188 11.66429687 11.58484375 11.65234375 12.3046875 C11.64332031 13.21476563 11.63429688 14.12484375 11.625 15.0625 C11.61339844 15.96742188 11.60179687 16.87234375 11.58984375 17.8046875 C11.52500743 20.2043585 11.52500743 20.2043585 12.6875 22.1875 C13.24763188 30.16114201 12.3284456 38.24435277 11.6875 46.1875 C11.3575 46.1875 11.0275 46.1875 10.6875 46.1875 C10.67291748 45.55884033 10.65833496 44.93018066 10.64331055 44.2824707 C10.90696691 23.31431696 10.90696691 23.31431696 3.6875 4.1875 C1.36162158 2.77231482 1.36162158 2.77231482 -1.3125 3.1875 C-5.39287548 6.31895095 -7.04865043 9.24699715 -8.3125 14.1875 C-8.6425 14.1875 -8.9725 14.1875 -9.3125 14.1875 C-9.56 13.07375 -9.8075 11.96 -10.0625 10.8125 C-10.92255339 7.14134802 -10.92255339 7.14134802 -13.4375 5.75 C-14.05625 5.564375 -14.675 5.37875 -15.3125 5.1875 C-15.250625 5.950625 -15.18875 6.71375 -15.125 7.5 C-15.3125 10.1875 -15.3125 10.1875 -16.8125 12 C-17.3075 12.391875 -17.8025 12.78375 -18.3125 13.1875 C-18.3125 12.1975 -18.3125 11.2075 -18.3125 10.1875 C-19.3025 10.8475 -20.2925 11.5075 -21.3125 12.1875 C-23.5 11.8125 -23.5 11.8125 -25.3125 11.1875 C-18.36368775 3.34206681 -10.37906423 0.00881824 0 0 Z " fill="#EA4C4C" transform="translate(276.3125,187.8125)"/>
<path d="M0 0 C0.85142578 -0.02449219 1.70285156 -0.04898438 2.58007812 -0.07421875 C8.93664771 -0.10326629 13.59946765 1.38489023 19.1875 4.375 C19.1875 5.035 19.1875 5.695 19.1875 6.375 C19.785625 6.601875 20.38375 6.82875 21 7.0625 C23.83710318 8.76476191 24.70225767 10.43429037 26.1875 13.375 C26.57276917 15.9302063 26.57276917 15.9302063 26.58813477 18.66845703 C26.60814293 20.21498459 26.60814293 20.21498459 26.6285553 21.79275513 C26.62867111 22.89497406 26.62878693 23.99719299 26.62890625 25.1328125 C26.64211411 26.27281708 26.65532196 27.41282166 26.66893005 28.58737183 C26.70980003 32.22493965 26.73149647 35.86225455 26.75 39.5 C26.77376737 43.1448101 26.80183887 46.78938132 26.84178162 50.43405151 C26.86618443 52.70099559 26.88100565 54.96806677 26.88539124 57.23513794 C26.89557785 58.25985199 26.90576447 59.28456604 26.91625977 60.34033203 C26.92267235 61.69337936 26.92267235 61.69337936 26.92921448 63.07376099 C27.04044009 65.6510474 27.04044009 65.6510474 29.1875 68.375 C30.1775 68.705 31.1675 69.035 32.1875 69.375 C32.1875 70.365 32.1875 71.355 32.1875 72.375 C30.8675 72.045 29.5475 71.715 28.1875 71.375 C28.1875 70.715 28.1875 70.055 28.1875 69.375 C27.1975 69.045 26.2075 68.715 25.1875 68.375 C24.8575 51.545 24.5275 34.715 24.1875 17.375 C23.5275 18.695 22.8675 20.015 22.1875 21.375 C21.1975 21.045 20.2075 20.715 19.1875 20.375 C19.8475 19.715 20.5075 19.055 21.1875 18.375 C21.77192963 15.50262267 21.77192963 15.50262267 21.1875 12.375 C16.68501254 6.84337255 12.18063014 4.26030916 5.1875 3.375 C2.39389581 3.26574331 -0.3923453 3.27964556 -3.1875 3.3125 C-4.29158203 3.31926758 -4.29158203 3.31926758 -5.41796875 3.32617188 C-7.21618158 3.33784858 -9.01435197 3.35577989 -10.8125 3.375 C-10.8125 4.035 -10.8125 4.695 -10.8125 5.375 C-11.4725 5.375 -12.1325 5.375 -12.8125 5.375 C-12.8125 7.355 -12.8125 9.335 -12.8125 11.375 C-12.1525 11.375 -11.4925 11.375 -10.8125 11.375 C-6.97000506 15.78256773 -6.40448196 18.83003815 -6.671875 24.6171875 C-6.74148438 25.48730469 -6.74148438 25.48730469 -6.8125 26.375 C-7.1425 26.375 -7.4725 26.375 -7.8125 26.375 C-8.05664062 23.34765625 -8.05664062 23.34765625 -8.30078125 20.3203125 C-8.68643036 17.97980784 -8.68643036 17.97980784 -11.8125 16.375 C-11.8125 15.385 -11.8125 14.395 -11.8125 13.375 C-12.4725 13.375 -13.1325 13.375 -13.8125 13.375 C-14.65704356 9.99682575 -14.92094919 7.70034757 -13.8125 4.375 C-15.7925 4.705 -17.7725 5.035 -19.8125 5.375 C-13.81826787 0.30295743 -7.51686468 0.01122758 0 0 Z " fill="#DD6F6F" transform="translate(389.8125,187.625)"/>
<path d="M0 0 C0.7878398 2.76496642 1.10321993 5.1495062 1.02734375 8.01953125 C1.01356689 8.7873291 0.99979004 9.55512695 0.9855957 10.34619141 C0.96972412 11.16007324 0.95385254 11.97395508 0.9375 12.8125 C0.832495 24.61596504 1.70971962 35.88427356 6 47 C6.66 47 7.32 47 8 47 C8 47.66 8 48.32 8 49 C10.35171131 48.40138258 12.6859378 47.73075648 15 47 C15.33 46.34 15.66 45.68 16 45 C16.66 45 17.32 45 18 45 C18.94324258 40.68803391 19.48041715 36.37934119 20 32 C20.33 32 20.66 32 21 32 C21 35.3 21 38.6 21 42 C20.34 42 19.68 42 19 42 C19 43.98 19 45.96 19 48 C20.32 48 21.64 48 23 48 C23 47.34 23 46.68 23 46 C25.64 45.67 28.28 45.34 31 45 C27.40923919 49.43564571 21.52347304 51.35773569 16 52 C9.00019056 52.50615906 3.50575768 51.56771213 -3 49 C-3.99 48.67 -4.98 48.34 -6 48 C-6 47.34 -6 46.68 -6 46 C-6.99 45.67 -7.98 45.34 -9 45 C-8.01 44.505 -8.01 44.505 -7 44 C-6.34 44.33 -5.68 44.66 -5 45 C-5 45.66 -5 46.32 -5 47 C-3.02 47 -1.04 47 1 47 C1.19662717 42.67420231 0.83591993 38.82115025 0.03125 34.5625 C-1.10264421 27.95633374 -1.43540025 21.44129126 -1.625 14.75 C-1.66367187 13.61175781 -1.70234375 12.47351563 -1.7421875 11.30078125 C-1.83518848 8.53400221 -1.92102861 5.76720883 -2 3 C-1.34 3 -0.68 3 0 3 C0 2.01 0 1.02 0 0 Z " fill="#E84E4E" transform="translate(265,212)"/>
<path d="M0 0 C0.495 0.99 0.495 0.99 1 2 C0.01 2 -0.98 2 -2 2 C-2 2.66 -2 3.32 -2 4 C-2.99 4.33 -3.98 4.66 -5 5 C-5.33 19.52 -5.66 34.04 -6 49 C1.92 48.01 1.92 48.01 10 47 C12.64 47 15.28 47 18 47 C18 47.33 18 47.66 18 48 C14.93852743 48.50642925 11.87567701 49.00399322 8.8125 49.5 C7.94818359 49.64308594 7.08386719 49.78617187 6.19335938 49.93359375 C2.09473423 50.59314262 -1.83226024 51.20709266 -6 51 C-6.309375 50.21625 -6.61875 49.4325 -6.9375 48.625 C-7.92875038 46.07669872 -7.92875038 46.07669872 -9 44 C-10.8871875 44.2475 -10.8871875 44.2475 -12.8125 44.5 C-15.26456585 44.82158241 -17.51650694 45 -20 45 C-20 44.34 -20 43.68 -20 43 C-19.01 43 -18.02 43 -17 43 C-16.67 42.34 -16.34 41.68 -16 41 C-14.88625 41.165 -13.7725 41.33 -12.625 41.5 C-9.27967967 42.0455458 -9.27967967 42.0455458 -7 42 C-7.33 30.45 -7.66 18.9 -8 7 C-15.31761121 11.16408689 -15.31761121 11.16408689 -19 17 C-19.66 17 -20.32 17 -21 17 C-21 14.69 -21 12.38 -21 10 C-22.258125 10.226875 -23.51625 10.45375 -24.8125 10.6875 C-26.95703125 11.07421875 -26.95703125 11.07421875 -29 11 C-30.76171875 9.51953125 -30.76171875 9.51953125 -32 8 C-30.7625 8.0825 -29.525 8.165 -28.25 8.25 C-19.66394586 8.26354267 -11.73751182 4.38516142 -4 1 C-2.67723944 0.62691369 -1.34767923 0.26953585 0 0 Z " fill="#E25658" transform="translate(400,213)"/>
<path d="M0 0 C0.495 1.98 0.495 1.98 1 4 C1.66 4 2.32 4 3 4 C3 7.63 3 11.26 3 15 C2.67 15 2.34 15 2 15 C1.505 11.535 1.505 11.535 1 8 C0.70867187 8.54527344 0.41734375 9.09054688 0.1171875 9.65234375 C-6.22108325 21.31237013 -6.22108325 21.31237013 -10 26 C-10.66 26 -11.32 26 -12 26 C-12.25910156 26.59039062 -12.51820313 27.18078125 -12.78515625 27.7890625 C-16.79552639 35.08767826 -25.59414054 39.82759132 -33 43 C-35.76636949 43.66218608 -38.14266037 43.89217586 -41 44 C-41 43.34 -41 42.68 -41 42 C-39.88625 41.62875 -38.7725 41.2575 -37.625 40.875 C-29.94039739 37.97797282 -18.8529127 32.70582541 -15 25 C-14.34 25 -13.68 25 -13 25 C-12.7525 24.484375 -12.505 23.96875 -12.25 23.4375 C-10.60418384 20.22815849 -8.8023904 17.12414336 -7 14 C-6.34 14 -5.68 14 -5 14 C-4.81630859 13.17242187 -4.81630859 13.17242187 -4.62890625 12.328125 C-3.92006389 9.70408745 -2.96388744 7.2663047 -1.9375 4.75 C-1.57527344 3.85796875 -1.21304688 2.9659375 -0.83984375 2.046875 C-0.56269531 1.37140625 -0.28554687 0.6959375 0 0 Z " fill="#DF7D7F" transform="translate(156,219)"/>
<path d="M0 0 C0.99 0.33 1.98 0.66 3 1 C3.00808685 1.94467636 3.01617371 2.88935272 3.02450562 3.86265564 C3.10220162 12.79266787 3.18999892 21.72253214 3.28752708 30.65235043 C3.33733939 35.24256848 3.38367004 39.8327652 3.421875 44.4230957 C3.45891902 48.85820897 3.50532928 53.29313681 3.55806351 57.72809029 C3.57650638 59.41480804 3.59165107 61.10156538 3.60334396 62.78834343 C3.51438318 75.06623326 3.51438318 75.06623326 6 87 C6.99 87.33 7.98 87.66 9 88 C9 89.32 9 90.64 9 92 C8.34 92 7.68 92 7 92 C0.892571 80.80304683 0.67462932 70.1672981 0.5859375 57.71484375 C0.56720057 56.04617889 0.54762533 54.37752325 0.5272522 52.70887756 C0.47619143 48.34426339 0.43642727 43.97961858 0.39910889 39.61486816 C0.35890475 35.15007106 0.30788774 30.6853985 0.2578125 26.22070312 C0.16136223 17.48055422 0.07685985 8.74034304 0 0 Z " fill="#DF5555" transform="translate(86,164)"/>
<path d="M0 0 C-4.43282993 3.86319057 -8.27271017 3.62320462 -14 4 C-14 8.29 -14 12.58 -14 17 C-13.01 17.33 -12.02 17.66 -11 18 C-11.33 19.32 -11.66 20.64 -12 22 C-13.99939569 20.33294354 -14.91135931 19.37959867 -15.51171875 16.80859375 C-15.56972656 16.02613281 -15.62773437 15.24367187 -15.6875 14.4375 C-15.78611328 13.25994141 -15.78611328 13.25994141 -15.88671875 12.05859375 C-15.9610813 10.70724678 -16 9.35339145 -16 8 C-17.98 8 -19.96 8 -22 8 C-21.93876774 16.01496074 -21.86164713 24.02954438 -21.76428509 32.04413986 C-21.71957319 35.76573264 -21.6803192 39.48721575 -21.65356445 43.20898438 C-21.62753914 46.80128613 -21.58714308 50.39316603 -21.53681374 53.9852066 C-21.52013962 55.35506184 -21.50862869 56.72499006 -21.50238609 58.09493256 C-21.49275191 60.01490344 -21.46299378 61.93474133 -21.43237305 63.85449219 C-21.42126999 64.94703308 -21.41016693 66.03957397 -21.39872742 67.16522217 C-20.95773914 70.30045628 -20.10805861 71.68738766 -18 74 C-19.32 74 -20.64 74 -22 74 C-23.4278535 71.14429301 -23.11941486 68.72285644 -23.11352539 65.53076172 C-23.11367142 64.86722687 -23.11381744 64.20369202 -23.1139679 63.52005005 C-23.11327031 61.32322947 -23.10548514 59.1264933 -23.09765625 56.9296875 C-23.09579152 55.40796963 -23.09436788 53.88625116 -23.09336853 52.36453247 C-23.08954767 48.35648953 -23.07972104 44.34848274 -23.06866455 40.3404541 C-23.05844118 36.25171396 -23.05386892 32.16296799 -23.04882812 28.07421875 C-23.0380984 20.04946256 -23.02102713 12.02473578 -23 4 C-22.07703125 3.86722656 -21.1540625 3.73445312 -20.203125 3.59765625 C-16.89862183 3.12506993 -16.89862183 3.12506993 -13.75 1.4375 C-9.29748091 -0.62366614 -4.8072036 -0.26115593 0 0 Z " fill="#DC4B4A" transform="translate(354,186)"/>
<path d="M0 0 C0.75821045 -0.00161133 1.5164209 -0.00322266 2.29760742 -0.00488281 C7.79406961 0.10656961 7.79406961 0.10656961 10.0625 2.375 C8.4125 2.375 6.7625 2.375 5.0625 2.375 C5.5575 2.74625 6.0525 3.1175 6.5625 3.5 C8.66005514 6.12194393 8.27993835 8.11342472 8.0625 11.375 C7.4025 11.045 6.7425 10.715 6.0625 10.375 C6.0625 9.055 6.0625 7.735 6.0625 6.375 C5.4025 6.375 4.7425 6.375 4.0625 6.375 C3.629375 5.859375 3.19625 5.34375 2.75 4.8125 C1.11456223 3.09548757 1.11456223 3.09548757 -1.4375 3.4375 C-4.48893627 4.5817886 -5.30858122 5.5825678 -6.9375 8.375 C-8.622523 12.11588118 -9.43951963 15.63812761 -10.0625 19.6875 C-10.23007813 20.75613281 -10.39765625 21.82476562 -10.5703125 22.92578125 C-10.69148437 23.73402344 -10.81265625 24.54226562 -10.9375 25.375 C-11.5975 25.045 -12.2575 24.715 -12.9375 24.375 C-12.6075 20.415 -12.2775 16.455 -11.9375 12.375 C-11.2775 12.375 -10.6175 12.375 -9.9375 12.375 C-10.2675 10.395 -10.5975 8.415 -10.9375 6.375 C-13.9075 5.88 -13.9075 5.88 -16.9375 5.375 C-16.9375 6.035 -16.9375 6.695 -16.9375 7.375 C-18.5875 7.705 -20.2375 8.035 -21.9375 8.375 C-16.0658754 1.22693527 -8.77312311 0.01837881 0 0 Z " fill="#E8585B" transform="translate(192.9375,187.625)"/>
<path d="M0 0 C0.99 0.33 1.98 0.66 3 1 C2.86149295 4.45866792 2.71295273 7.91683275 2.5625 11.375 C2.50352539 12.85226563 2.50352539 12.85226563 2.44335938 14.359375 C2.40146484 15.30039063 2.35957031 16.24140625 2.31640625 17.2109375 C2.26141968 18.51490479 2.26141968 18.51490479 2.20532227 19.84521484 C2 22 2 22 1 24 C10.57 24.33 20.14 24.66 30 25 C30 25.66 30 26.32 30 27 C18.12 27 6.24 27 -6 27 C-6 26.34 -6 25.68 -6 25 C-4.34997172 23.64613064 -2.6825613 22.31321858 -1 21 C0.38226016 18.23547967 0.09525387 15.9538637 0.0625 12.875 C0.05347656 11.77929688 0.04445313 10.68359375 0.03515625 9.5546875 C0.02355469 8.71164063 0.01195312 7.86859375 0 7 C-0.99 8.32 -1.98 9.64 -3 11 C-2.25 3.375 -2.25 3.375 0 0 Z " fill="#D64547" transform="translate(308,236)"/>
<path d="M0 0 C-1.32 0.33 -2.64 0.66 -4 1 C-4 1.66 -4 2.32 -4 3 C-5.98 3 -7.96 3 -10 3 C-9.50653076 3.47598633 -9.01306152 3.95197266 -8.50463867 4.44238281 C-6.2707606 8.23957682 -6.73214125 11.60703606 -6.92578125 15.921875 C-6.95222214 16.78186096 -6.97866302 17.64184692 -7.00590515 18.52789307 C-7.09353802 21.26931199 -7.20273136 24.00938689 -7.3125 26.75 C-7.3757724 28.61062922 -7.437638 30.47130686 -7.49804688 32.33203125 C-7.64905786 36.88874291 -7.81940673 41.44436873 -8 46 C-9.32 45.34 -10.64 44.68 -12 44 C-11.67 43.34 -11.34 42.68 -11 42 C-10.71702175 37.02280658 -10.68637534 32.04478091 -10.64990234 27.06030273 C-10.63331721 25.39674922 -10.60599321 23.73326771 -10.56787109 22.07006836 C-10.51320579 19.67263824 -10.49124956 17.27687489 -10.4765625 14.87890625 C-10.45389313 14.13508194 -10.43122375 13.39125763 -10.40786743 12.62489319 C-10.36165065 10.27259294 -10.36165065 10.27259294 -11 7 C-13.42025578 5.08284367 -13.42025578 5.08284367 -16 4 C-16 3.34 -16 2.68 -16 2 C-10.54538831 0.61470179 -5.63281599 -0.2396943 0 0 Z " fill="#EA7477" transform="translate(230,160)"/>
<path d="M0 0 C3.84716251 2.564775 4.22726665 4.34701528 5.43359375 8.6796875 C6.86323336 17.06033351 6.59718479 26.02432685 5.421875 34.4296875 C4.68830117 37.83416977 4.68830117 37.83416977 6 40 C5.01 40 4.02 40 3 40 C3 40.99 3 41.98 3 43 C2.34 43 1.68 43 1 43 C1.02320313 43.62648437 1.04640625 44.25296875 1.0703125 44.8984375 C1.08835938 45.71570313 1.10640625 46.53296875 1.125 47.375 C1.14820313 48.18710938 1.17140625 48.99921875 1.1953125 49.8359375 C1 52 1 52 -1 54 C-2.6710194 48.48563598 -0.75710447 44.2713134 1 39 C1.22179785 37.10787263 1.40614015 35.21115528 1.5625 33.3125 C1.64628906 32.31863281 1.73007813 31.32476562 1.81640625 30.30078125 C1.87699219 29.54152344 1.93757812 28.78226563 2 28 C2.33 28 2.66 28 3 28 C3 20.74 3 13.48 3 6 C2.34 6 1.68 6 1 6 C0.67 4.02 0.34 2.04 0 0 Z " fill="#E96B6D" transform="translate(160,164)"/>
<path d="M0 0 C13.2 0 26.4 0 40 0 C40 12.87 40 25.74 40 39 C39.67 39 39.34 39 39 39 C38.505 36.03 38.505 36.03 38 33 C37.01 33.66 36.02 34.32 35 35 C34.25 32.75 34.25 32.75 34 30 C34.64227539 29.40413086 35.28455078 28.80826172 35.94628906 28.19433594 C38.56769279 25.39343523 38.53210162 23.92702043 38.609375 20.140625 C38.63999023 19.13547852 38.67060547 18.13033203 38.70214844 17.09472656 C38.71793945 15.8259668 38.73373047 14.55720703 38.75 13.25 C38.8325 9.2075 38.915 5.165 39 1 C26.13 1 13.26 1 0 1 C0 0.67 0 0.34 0 0 Z " fill="#F9C2C1" transform="translate(181,218)"/>
<path d="M0 0 C0.2475 0.598125 0.495 1.19625 0.75 1.8125 C2.16444091 4.28777159 3.72860188 5.33430804 6 7 C6 7.66 6 8.32 6 9 C-5.88 9 -17.76 9 -30 9 C-30 8.34 -30 7.68 -30 7 C-29.195625 6.71125 -28.39125 6.4225 -27.5625 6.125 C-24.8673532 5.26737432 -24.8673532 5.26737432 -24 3 C-23.67 3.99 -23.34 4.98 -23 6 C-15.74 6 -8.48 6 -1 6 C-0.67 4.02 -0.34 2.04 0 0 Z " fill="#D23B3D" transform="translate(244,254)"/>
<path d="M0 0 C3 1 3 1 4 3 C4.10873892 4.64839123 4.15632289 6.30099713 4.17358398 7.95288086 C4.18707382 8.98412582 4.20056366 10.01537079 4.21446228 11.0778656 C4.22490067 12.19556839 4.23533905 13.31327118 4.24609375 14.46484375 C4.27902583 16.81445694 4.31223758 19.16406622 4.34570312 21.51367188 C4.39318571 25.2313371 4.43762106 28.94898575 4.47680664 32.66674805 C4.516425 36.24544817 4.56798968 39.82382196 4.62109375 43.40234375 C4.6295079 44.51802231 4.63792206 45.63370087 4.64659119 46.78318787 C4.66323318 47.81758499 4.67987518 48.85198212 4.69702148 49.91772461 C4.70732895 50.82880478 4.71763641 51.73988495 4.72825623 52.67857361 C4.85378527 55.27272782 4.85378527 55.27272782 7 58 C7.99 58.33 8.98 58.66 10 59 C10 59.99 10 60.98 10 62 C8.68 61.67 7.36 61.34 6 61 C6 60.34 6 59.68 6 59 C5.01 58.67 4.02 58.34 3 58 C2.67 41.17 2.34 24.34 2 7 C1.34 8.32 0.68 9.64 0 11 C-0.99 10.67 -1.98 10.34 -3 10 C-2.34 9.34 -1.68 8.68 -1 8 C-0.54188325 6.02764667 -0.54188325 6.02764667 -0.375 3.875 C-0.25125 2.59625 -0.1275 1.3175 0 0 Z " fill="#D13939" transform="translate(412,198)"/>
<path d="M0 0 C-0.11398665 1.62580966 -0.24155659 3.25067157 -0.375 4.875 C-0.44460938 5.77992188 -0.51421875 6.68484375 -0.5859375 7.6171875 C-1 10 -1 10 -3 12 C-3.2475 10.88625 -3.495 9.7725 -3.75 8.625 C-4.61005339 4.95384802 -4.61005339 4.95384802 -7.125 3.5625 C-7.74375 3.376875 -8.3625 3.19125 -9 3 C-8.938125 3.763125 -8.87625 4.52625 -8.8125 5.3125 C-9 8 -9 8 -10.5 9.8125 C-10.995 10.204375 -11.49 10.59625 -12 11 C-12 10.01 -12 9.02 -12 8 C-12.99 8.66 -13.98 9.32 -15 10 C-17.1875 9.625 -17.1875 9.625 -19 9 C-14.02076792 3.37828636 -7.81521464 -2.22898727 0 0 Z " fill="#EF4D4E" transform="translate(270,190)"/>
<path d="M0 0 C0.33 0 0.66 0 1 0 C1 3.3 1 6.6 1 10 C0.34 10 -0.32 10 -1 10 C-1 11.98 -1 13.96 -1 16 C0.32 16 1.64 16 3 16 C3 15.34 3 14.68 3 14 C5.64 13.67 8.28 13.34 11 13 C7.40923919 17.43564571 1.52347304 19.35773569 -4 20 C-7.33525313 20.07205794 -10.66464862 20.05828769 -14 20 C-13.505 18.515 -13.505 18.515 -13 17 C-11.329375 16.8453125 -11.329375 16.8453125 -9.625 16.6875 C-8.42875 16.460625 -7.2325 16.23375 -6 16 C-5.34 15.01 -4.68 14.02 -4 13 C-3.34 13 -2.68 13 -2 13 C-1.05675742 8.68803391 -0.51958285 4.37934119 0 0 Z " fill="#EA6C6D" transform="translate(285,244)"/>
<path d="M0 0 C2.0625 0.4375 2.0625 0.4375 4 1 C1.76915551 3.40244791 -0.27598762 5.17460442 -3.0625 6.9375 C-6.10415535 9.07313035 -7.22773591 10.80992464 -9 14 C-9.66 14 -10.32 14 -11 14 C-11 11.69 -11 9.38 -11 7 C-12.8871875 7.3403125 -12.8871875 7.3403125 -14.8125 7.6875 C-16.95703125 8.07421875 -16.95703125 8.07421875 -19 8 C-20.76171875 6.51953125 -20.76171875 6.51953125 -22 5 C-20.7625 5.0825 -19.525 5.165 -18.25 5.25 C-12.11560034 5.27930446 -6.6378454 3.27893426 -1 1 C-0.67 0.67 -0.34 0.34 0 0 Z " fill="#F0706F" transform="translate(390,216)"/>
<path d="M0 0 C0.66 0.33 1.32 0.66 2 1 C1.67 1.66 1.34 2.32 1 3 C0.34 3 -0.32 3 -1 3 C-1 3.66 -1 4.32 -1 5 C-1.99 5.66 -2.98 6.32 -4 7 C-5.57630481 8.54822813 -7.08431906 10.14820704 -8.59765625 11.7578125 C-10 13 -10 13 -12 13 C-12.33 17.95 -12.66 22.9 -13 28 C-15 26 -15 26 -15.265625 23.79296875 C-15.21379833 15.15087187 -15.21379833 15.15087187 -13 11 C-12.34 11 -11.68 11 -11 11 C-10.76539063 10.24332031 -10.53078125 9.48664063 -10.2890625 8.70703125 C-8.76490328 5.50629689 -7.36493058 4.52417164 -4.375 2.6875 C-3.55773437 2.17574219 -2.74046875 1.66398438 -1.8984375 1.13671875 C-1.27195312 0.76160156 -0.64546875 0.38648438 0 0 Z " fill="#E75E61" transform="translate(369,224)"/>
<path d="M0 0 C1.23080509 2.46161017 1.12043977 4.06496993 1.11352539 6.81689453 C1.11344986 7.81778107 1.11337433 8.8186676 1.11329651 9.84988403 C1.10813522 10.93325043 1.10297394 12.01661682 1.09765625 13.1328125 C1.0962413 14.23978485 1.09482635 15.3467572 1.09336853 16.48727417 C1.08775772 20.03320993 1.07520337 23.57908323 1.0625 27.125 C1.05748639 29.52473867 1.05292325 31.92447833 1.04882812 34.32421875 C1.03778478 40.21616725 1.0210361 46.10807916 1 52 C0.67 52 0.34 52 0 52 C0 35.83 0 19.66 0 3 C-2.97 3 -5.94 3 -9 3 C-9.33 2.34 -9.66 1.68 -10 1 C-6.61981469 -0.04005702 -3.5219721 -0.08004482 0 0 Z " fill="#D13333" transform="translate(243,158)"/>
<path d="M0 0 C11.385 0.99 11.385 0.99 23 2 C23 1.34 23 0.68 23 0 C25.31 0 27.62 0 30 0 C24.9802207 4.41740579 18.93139996 5.44817069 12.421875 5.3359375 C7.99087262 4.72131459 4.02662142 2.88301294 0 1 C0 0.67 0 0.34 0 0 Z " fill="#EB5957" transform="translate(361,259)"/>
<path d="M0 0 C1.9375 1.09375 1.9375 1.09375 4.875 3.09375 C4.875 3.75375 4.875 4.41375 4.875 5.09375 C2.895 5.09375 0.915 5.09375 -1.125 5.09375 C-1.125 4.43375 -1.125 3.77375 -1.125 3.09375 C-7.26046971 2.04276676 -12.35203368 1.50586855 -18.125 4.09375 C-19.69780484 6.98602199 -20.48923453 9.87518733 -21.125 13.09375 C-21.785 13.09375 -22.445 13.09375 -23.125 13.09375 C-22.60231534 10.33098823 -22.01630413 7.7676624 -21.125 5.09375 C-20.465 5.09375 -19.805 5.09375 -19.125 5.09375 C-19.125 4.43375 -19.125 3.77375 -19.125 3.09375 C-12.89571124 -0.53056346 -7.0414382 -3.00296629 0 0 Z " fill="#E86162" transform="translate(155.125,158.90625)"/>
<path d="M0 0 C0.33 0 0.66 0 1 0 C1.6271777 7.99651568 1.6271777 7.99651568 -0.875 12 C-4.13544295 15.06865219 -6.04637525 15.15834247 -10.4375 15.1875 C-11.40558594 15.20167969 -12.37367188 15.21585938 -13.37109375 15.23046875 C-16 15 -16 15 -19 13 C-19 12.34 -19 11.68 -19 11 C-18.05125 11.020625 -17.1025 11.04125 -16.125 11.0625 C-13.09333717 11.22551826 -13.09333717 11.22551826 -11 10 C-11 11.32 -11 12.64 -11 14 C-7.535 13.505 -7.535 13.505 -4 13 C-4.33 11.68 -4.66 10.36 -5 9 C-3.68 9.33 -2.36 9.66 -1 10 C-0.67 6.7 -0.34 3.4 0 0 Z " fill="#EA4C4E" transform="translate(381,206)"/>
<path d="M0 0 C0.33 0.99 0.66 1.98 1 3 C-13.21359223 12 -13.21359223 12 -21 12 C-21 11.34 -21 10.68 -21 10 C-19.88625 9.62875 -18.7725 9.2575 -17.625 8.875 C-13.13651583 7.21082049 -9.23721291 4.85299778 -5.19921875 2.3046875 C-3 1 -3 1 0 0 Z " fill="#E27D83" transform="translate(136,251)"/>
<path d="M0 0 C2.7648665 -0.22417836 4.46277487 -0.32233508 6.875 1.125 C8.5336597 3.88943283 7.57844887 5.91493934 7 9 C7.99 10.485 7.99 10.485 9 12 C8.67 12.66 8.34 13.32 8 14 C7.34 14 6.68 14 6 14 C5.67 14.66 5.34 15.32 5 16 C3.24252386 11.49646738 2.80705592 7.82360189 3 3 C2.01 2.67 1.02 2.34 0 2 C0 1.34 0 0.68 0 0 Z " fill="#F83232" transform="translate(198,190)"/>
<path d="M0 0 C-1.45833333 0.29166667 -2.91666667 0.58333333 -4.375 0.875 C-5.27863281 1.05675781 -6.18226563 1.23851562 -7.11328125 1.42578125 C-9.02576389 1.80620743 -10.93984083 2.17871118 -12.85546875 2.54296875 C-13.74878906 2.71441406 -14.64210938 2.88585937 -15.5625 3.0625 C-16.38878906 3.21847656 -17.21507812 3.37445313 -18.06640625 3.53515625 C-19.99480419 3.82072541 -19.99480419 3.82072541 -21 5 C-21.04080783 6.99958364 -21.04254356 9.00045254 -21 11 C-22.5 9.625 -22.5 9.625 -24 8 C-24 7.34 -24 6.68 -24 6 C-25.32 5.67 -26.64 5.34 -28 5 C-27.67 4.01 -27.34 3.02 -27 2 C-23.25163939 1.46688195 -19.50114226 0.95064909 -15.75 0.4375 C-14.68652344 0.28603516 -13.62304688 0.13457031 -12.52734375 -0.02148438 C-11.50253906 -0.16005859 -10.47773438 -0.29863281 -9.421875 -0.44140625 C-8.47924805 -0.57232666 -7.53662109 -0.70324707 -6.56542969 -0.83813477 C-4.09111735 -0.99425097 -2.34338377 -0.75460815 0 0 Z " fill="#E66264" transform="translate(330,190)"/>
<path d="M0 0 C11.88 0 23.76 0 36 0 C35.67 0.66 35.34 1.32 35 2 C21.14 1.505 21.14 1.505 7 1 C7.66 2.32 8.32 3.64 9 5 C5.61976483 5 3.16531063 4.12544378 0 3 C0 2.01 0 1.02 0 0 Z " fill="#E36565" transform="translate(78,158)"/>
<path d="M0 0 C0.680625 0.99 0.680625 0.99 1.375 2 C1.91125 2.66 2.4475 3.32 3 4 C3.66 4 4.32 4 5 4 C5.33 3.34 5.66 2.68 6 2 C6 3.65 6 5.3 6 7 C5.01 7.495 5.01 7.495 4 8 C3.67 10.97 3.34 13.94 3 17 C-4.26 17 -11.52 17 -19 17 C-19 16.67 -19 16.34 -19 16 C-12.07 16 -5.14 16 2 16 C1.34 12.7 0.68 9.4 0 6 C-0.125 2.375 -0.125 2.375 0 0 Z " fill="#E85454" transform="translate(201,200)"/>
<path d="M0 0 C2.31 0 4.62 0 7 0 C7 0.66 7 1.32 7 2 C14.26 2 21.52 2 29 2 C23.49563189 5.66957874 17.43944091 5.40246506 11 5 C6.56794065 4.07069723 3.41300554 3.00344487 0 0 Z " fill="#E36263" transform="translate(176,259)"/>
<path d="M0 0 C2.9278492 3.54101134 3.19982085 5.40412036 3 10 C3.33 10.66 3.66 11.32 4 12 C3.01 12 2.02 12 1 12 C1 12.99 1 13.98 1 15 C0.34 15 -0.32 15 -1 15 C-0.97679687 15.62648437 -0.95359375 16.25296875 -0.9296875 16.8984375 C-0.90261719 18.12433594 -0.90261719 18.12433594 -0.875 19.375 C-0.85179687 20.18710938 -0.82859375 20.99921875 -0.8046875 21.8359375 C-1 24 -1 24 -3 26 C-4.6710194 20.48563598 -2.75710447 16.2713134 -1 11 C-0.77820215 9.10787263 -0.59385985 7.21115528 -0.4375 5.3125 C-0.31181641 3.82169922 -0.31181641 3.82169922 -0.18359375 2.30078125 C-0.12300781 1.54152344 -0.06242188 0.78226563 0 0 Z " fill="#E36366" transform="translate(162,192)"/>
<path d="M0 0 C2.20914 3.31371 2.22481553 4.3446021 2.125 8.1875 C2.10695313 9.08855469 2.08890625 9.98960937 2.0703125 10.91796875 C2.03550781 11.94857422 2.03550781 11.94857422 2 13 C0.0625 12.625 0.0625 12.625 -2 12 C-2.33 11.34 -2.66 10.68 -3 10 C-7.455 10.495 -7.455 10.495 -12 11 C-5.625 6.75 -5.625 6.75 -1 7 C-0.67 4.69 -0.34 2.38 0 0 Z M0 10 C1 12 1 12 1 12 Z " fill="#F54142" transform="translate(413,202)"/>
<path d="M0 0 C0.66 0 1.32 0 2 0 C1.97679687 0.86882812 1.95359375 1.73765625 1.9296875 2.6328125 C1.91164063 3.78523437 1.89359375 4.93765625 1.875 6.125 C1.84019531 7.83042969 1.84019531 7.83042969 1.8046875 9.5703125 C2.08780944 14.54193383 3.65573234 18.64636006 6 23 C3.69 22.67 1.38 22.34 -1 22 C-0.67 14.74 -0.34 7.48 0 0 Z " fill="#EE6367" transform="translate(377,231)"/>
<path d="M0 0 C0 0.66 0 1.32 0 2 C1.32 2.66 2.64 3.32 4 4 C3.34 5.32 2.68 6.64 2 8 C1.278125 7.236875 0.55625 6.47375 -0.1875 5.6875 C-4.58769986 1.48286458 -7.93463532 -0.29472504 -14 -1 C-14 -1.33 -14 -1.66 -14 -2 C-8.87160006 -3.81975482 -4.82315618 -1.8599099 0 0 Z " fill="#DF8589" transform="translate(409,192)"/>
<path d="M0 0 C0.33 1.32 0.66 2.64 1 4 C1.66 4 2.32 4 3 4 C3 7.63 3 11.26 3 15 C2.67 15 2.34 15 2 15 C1.67 12.69 1.34 10.38 1 8 C0.38125 8.969375 -0.2375 9.93875 -0.875 10.9375 C-3 14 -3 14 -5 15 C-4.37321829 11.33827525 -3.35548154 8.1181005 -1.9375 4.6875 C-1.39416016 3.36298828 -1.39416016 3.36298828 -0.83984375 2.01171875 C-0.56269531 1.34785156 -0.28554687 0.68398437 0 0 Z " fill="#DD7375" transform="translate(156,219)"/>
<path d="M0 0 C-0.33 2.64 -0.66 5.28 -1 8 C-0.34 8 0.32 8 1 8 C4.84249494 12.40756773 5.40801804 15.45503815 5.140625 21.2421875 C5.07101562 22.11230469 5.07101562 22.11230469 5 23 C4.67 23 4.34 23 4 23 C3.75585938 19.97265625 3.75585938 19.97265625 3.51171875 16.9453125 C3.12606964 14.60480784 3.12606964 14.60480784 0 13 C0 12.01 0 11.02 0 10 C-0.66 10 -1.32 10 -2 10 C-2.84454356 6.62182575 -3.10844919 4.32534757 -2 1 C-3.98 1.33 -5.96 1.66 -8 2 C-4.77208445 -0.1519437 -3.71599191 -0.20086443 0 0 Z " fill="#E65A59" transform="translate(378,191)"/>
<path d="M0 0 C5.61 0 11.22 0 17 0 C17 0.33 17 0.66 17 1 C15.824375 1.2165625 15.824375 1.2165625 14.625 1.4375 C12.03578982 1.87798925 12.03578982 1.87798925 10 3 C8.824375 3.1546875 8.824375 3.1546875 7.625 3.3125 C4.42656441 4.15018551 3.14103101 5.54177921 1 8 C1.020625 7.05125 1.04125 6.1025 1.0625 5.125 C1.22551826 2.09333717 1.22551826 2.09333717 0 0 Z " fill="#E66766" transform="translate(268,188)"/>
<path d="M0 0 C0 0.66 0 1.32 0 2 C-4.96073422 3.32286246 -9.91111512 3.08893197 -15 3 C-14.67 2.01 -14.34 1.02 -14 0 C-9.02936879 -0.91297308 -4.97063121 -0.91297308 0 0 Z " fill="#E06868" transform="translate(286,261)"/>
<path d="M0 0 C-1.32 0.33 -2.64 0.66 -4 1 C-4 1.66 -4 2.32 -4 3 C-5.98 3 -7.96 3 -10 3 C-9.67 3.99 -9.34 4.98 -9 6 C-12.10551666 6 -13.35261084 5.4606285 -16 4 C-16 3.34 -16 2.68 -16 2 C-10.54538831 0.61470179 -5.63281599 -0.2396943 0 0 Z " fill="#E65C5C" transform="translate(230,160)"/>
<path d="M0 0 C0.66 0.66 1.32 1.32 2 2 C0.35 2 -1.3 2 -3 2 C-2.505 2.37125 -2.01 2.7425 -1.5 3.125 C0.59755514 5.74694393 0.21743835 7.73842472 0 11 C-0.66 10.67 -1.32 10.34 -2 10 C-2 8.68 -2 7.36 -2 6 C-2.66 6 -3.32 6 -4 6 C-5.02196992 5.02246356 -6.01979625 4.0194119 -7 3 C-7.99 2.34 -8.98 1.68 -10 1 C-6.61401171 -0.04184255 -3.53318313 -0.23042499 0 0 Z " fill="#E96A6A" transform="translate(201,188)"/>
<path d="M0 0 C1.98 0.99 1.98 0.99 4 2 C3.67 5.63 3.34 9.26 3 13 C2.01 12.67 1.02 12.34 0 12 C0 8.04 0 4.08 0 0 Z " fill="#FC312C" transform="translate(377,203)"/>
<path d="M0 0 C-0.25 3.375 -0.25 3.375 -1 7 C-3.0625 8.4375 -3.0625 8.4375 -5 9 C-5 8.01 -5 7.02 -5 6 C-4.34 6 -3.68 6 -3 6 C-3 5.34 -3 4.68 -3 4 C-3.99 4.33 -4.98 4.66 -6 5 C-6.33 4.01 -6.66 3.02 -7 2 C-2.25 0 -2.25 0 0 0 Z " fill="#EB5B5B" transform="translate(216,249)"/>
<path d="M0 0 C0.33 0.66 0.66 1.32 1 2 C1.66 2 2.32 2 3 2 C3 3.32 3 4.64 3 6 C3.66 6.33 4.32 6.66 5 7 C5.92250728 8.32226044 6.79227711 9.68193311 7.625 11.0625 C8.07101563 11.79597656 8.51703125 12.52945313 8.9765625 13.28515625 C9.31429687 13.85105469 9.65203125 14.41695312 10 15 C9.01 15.495 9.01 15.495 8 16 C8 15.34 8 14.68 8 14 C7.34 14 6.68 14 6 14 C4.9923048 12.2335343 3.99408286 10.46166177 3 8.6875 C2.443125 7.70136719 1.88625 6.71523437 1.3125 5.69921875 C0 3 0 3 0 0 Z " fill="#E96F6F" transform="translate(160,238)"/>
<path d="M0 0 C0.66 0.33 1.32 0.66 2 1 C1.67 1.66 1.34 2.32 1 3 C0.34 3 -0.32 3 -1 3 C-1 3.66 -1 4.32 -1 5 C-1.99 5.66 -2.98 6.32 -4 7 C-5.67423683 8.32381517 -7.34211215 9.65576661 -9 11 C-8.09985829 6.69932292 -6.90171303 4.6115108 -3.375 2.125 C-2.26125 1.42375 -1.1475 0.7225 0 0 Z " fill="#ED4B4E" transform="translate(369,224)"/>
<path d="M0 0 C2.97 0 5.94 0 9 0 C9 3.3 9 6.6 9 10 C8.67 10 8.34 10 8 10 C8 8.02 8 6.04 8 4 C5.36 3.34 2.72 2.68 0 2 C0 1.34 0 0.68 0 0 Z " fill="#EE4949" transform="translate(155,188)"/>
<path d="M0 0 C0.28875 0.61875 0.5775 1.2375 0.875 1.875 C1.93720042 4.13325765 1.93720042 4.13325765 4 6 C4.125 9.625 4.125 9.625 4 13 C3.34 13 2.68 13 2 13 C0.21590198 9.93753253 -0.22880021 7.77920727 -0.125 4.25 C-0.10695312 3.45078125 -0.08890625 2.6515625 -0.0703125 1.828125 C-0.04710937 1.22484375 -0.02390625 0.6215625 0 0 Z " fill="#EC4447" transform="translate(132,172)"/>
<path d="M0 0 C0.66 0 1.32 0 2 0 C2.66 1.65 3.32 3.3 4 5 C4.33 3.35 4.66 1.7 5 0 C6.76462683 3.08809695 7 4.23312136 7 8 C5.02 8 3.04 8 1 8 C0.67 5.36 0.34 2.72 0 0 Z " fill="#F14A4A" transform="translate(305,207)"/>
<path d="M0 0 C1.20628008 2.33214148 2.1654738 4.49642139 3 7 C2.01 7.495 2.01 7.495 1 8 C-3.875 4.375 -3.875 4.375 -5 1 C-3 0 -3 0 0 0 Z " fill="#F14447" transform="translate(174,251)"/>
<path d="M0 0 C0.99 0.33 1.98 0.66 3 1 C3.33 2.98 3.66 4.96 4 7 C3.34 7 2.68 7 2 7 C1.34 8.32 0.68 9.64 0 11 C-0.99 10.67 -1.98 10.34 -3 10 C-2.34 9.34 -1.68 8.68 -1 8 C-0.54188325 6.02764667 -0.54188325 6.02764667 -0.375 3.875 C-0.25125 2.59625 -0.1275 1.3175 0 0 Z " fill="#E76266" transform="translate(412,198)"/>
<path d="M0 0 C0.99 0.33 1.98 0.66 3 1 C3 2.65 3 4.3 3 6 C2.34 5.34 1.68 4.68 1 4 C0.01 6.31 -0.98 8.62 -2 11 C-2.33 11 -2.66 11 -3 11 C-2.25 3.375 -2.25 3.375 0 0 Z " fill="#F04F4E" transform="translate(308,236)"/>
<path d="M0 0 C1.32 0.33 2.64 0.66 4 1 C4 1.66 4 2.32 4 3 C5.918125 3.185625 5.918125 3.185625 7.875 3.375 C11.75 3.75 11.75 3.75 14 6 C11.83032311 6.95465783 10.43671207 7.14401212 8.17578125 6.3984375 C6.4315257 5.64129615 4.71372869 4.82390802 3 4 C3 3.34 3 2.68 3 2 C2.01 1.67 1.02 1.34 0 1 C0 0.67 0 0.34 0 0 Z " fill="#E97275" transform="translate(256,256)"/>
<path d="M0 0 C1.32 0 2.64 0 4 0 C4 0.66 4 1.32 4 2 C5.98 1.67 7.96 1.34 10 1 C10.33 1.99 10.66 2.98 11 4 C11.99 4.66 12.98 5.32 14 6 C8.29290936 5.53411505 4.84060277 4.06242216 0 1 C0 0.67 0 0.34 0 0 Z " fill="#EF6D6D" transform="translate(95,257)"/>
<path d="M0 0 C0 3 0 3 -1.53125 4.60546875 C-2.1809375 5.12753906 -2.830625 5.64960938 -3.5 6.1875 C-4.1496875 6.71730469 -4.799375 7.24710938 -5.46875 7.79296875 C-5.9740625 8.19128906 -6.479375 8.58960938 -7 9 C-6.67 6.69 -6.34 4.38 -6 2 C-5.67 2.66 -5.34 3.32 -5 4 C-4.67 3.01 -4.34 2.02 -4 1 C-1.9375 0.3125 -1.9375 0.3125 0 0 Z " fill="#EE6968" transform="translate(303,248)"/>
<path d="M0 0 C0.99 0.495 0.99 0.495 2 1 C2.59896093 3.30710878 2.95654965 5.61688718 3.33984375 7.96875 C3.55769531 8.6390625 3.77554688 9.309375 4 10 C4.99 10.33 5.98 10.66 7 11 C7 12.32 7 13.64 7 15 C6.34 15 5.68 15 5 15 C2.18467181 9.95859836 0.4811491 5.77378925 0 0 Z " fill="#E76465" transform="translate(88,241)"/>
<path d="M0 0 C0.33 1.32 0.66 2.64 1 4 C-0.64666203 3.8864371 -2.29236082 3.75882619 -3.9375 3.625 C-4.85402344 3.55539063 -5.77054688 3.48578125 -6.71484375 3.4140625 C-7.84599609 3.20910156 -7.84599609 3.20910156 -9 3 C-9.33 2.34 -9.66 1.68 -10 1 C-6.61981469 -0.04005702 -3.5219721 -0.08004482 0 0 Z " fill="#E75456" transform="translate(243,158)"/>
<path d="M0 0 C0.99 0.495 0.99 0.495 2 1 C3.26761762 5.29581527 4 8.50944298 4 13 C3.34 13 2.68 13 2 13 C-0.24828052 8.50343896 -0.16682272 4.92127034 0 0 Z " fill="#E55958" transform="translate(181,224)"/>
<path d="M0 0 C1.32 0 2.64 0 4 0 C2.47291037 3.43595166 0.40072955 6.11912454 -2 9 C-2.6875 7.3125 -2.6875 7.3125 -3 5 C-1.8125 2.25 -1.8125 2.25 0 0 Z " fill="#E08590" transform="translate(149,233)"/>
<path d="M0 0 C7.75 0.875 7.75 0.875 10 2 C9.67 2.99 9.34 3.98 9 5 C8.67 4.34 8.34 3.68 8 3 C6.741875 3.165 5.48375 3.33 4.1875 3.5 C1.73543415 3.82158241 -0.51650694 4 -3 4 C-3 3.34 -3 2.68 -3 2 C-2.01 2 -1.02 2 0 2 C0 1.34 0 0.68 0 0 Z " fill="#F3696B" transform="translate(383,254)"/>
<path d="M0 0 C0.33 0.66 0.66 1.32 1 2 C4.47713301 4.00603828 8.3075105 5.4377929 12 7 C12 7.33 12 7.66 12 8 C8.08833093 8.37253991 6.16363775 8.0848492 2.625 6.25 C1.75875 5.5075 0.8925 4.765 0 4 C0 2.68 0 1.36 0 0 Z " fill="#EB7A81" transform="translate(190,244)"/>
<path d="M0 0 C0.66 0 1.32 0 2 0 C2 2.31 2 4.62 2 7 C2.99 7.33 3.98 7.66 5 8 C4.67 9.32 4.34 10.64 4 12 C1.95780294 10.30820672 1.08206694 9.36272334 0.48828125 6.73828125 C0.43027344 5.93777344 0.37226563 5.13726562 0.3125 4.3125 C0.24675781 3.50425781 0.18101562 2.69601563 0.11328125 1.86328125 C0.07589844 1.24839844 0.03851563 0.63351563 0 0 Z " fill="#EC676A" transform="translate(338,196)"/>
<path d="M0 0 C-0.75 7.75 -0.75 7.75 -3 10 C-3.33 7.03 -3.66 4.06 -4 1 C-2 0 -2 0 0 0 Z " fill="#F04747" transform="translate(186,191)"/>
<path d="M0 0 C-2.36292656 2.52588702 -3.66462511 3.88820837 -7 5 C-7 4.01 -7 3.02 -7 2 C-7.66 1.67 -8.32 1.34 -9 1 C-5.57367167 -0.61798838 -3.61944899 -1.34053666 0 0 Z " fill="#E6797D" transform="translate(394,217)"/>
<path d="M0 0 C0 3 0 3 -2.5 5.6875 C-3.325 6.450625 -4.15 7.21375 -5 8 C-5.66 7.34 -6.32 6.68 -7 6 C-4.69 4.02 -2.38 2.04 0 0 Z " fill="#E9575B" transform="translate(369,193)"/>
<path d="M0 0 C0.33 1.32 0.66 2.64 1 4 C-1.31 4.33 -3.62 4.66 -6 5 C-5.67 3.68 -5.34 2.36 -5 1 C-3.35 0.67 -1.7 0.34 0 0 Z " fill="#E76869" transform="translate(337,189)"/>
<path d="M0 0 C0.2475 0.598125 0.495 1.19625 0.75 1.8125 C2.16444091 4.28777159 3.72860188 5.33430804 6 7 C6 7.66 6 8.32 6 9 C3.69 8.34 1.38 7.68 -1 7 C-0.67 4.69 -0.34 2.38 0 0 Z " fill="#EC6F72" transform="translate(244,254)"/>
<path d="M0 0 C0.598125 0.639375 1.19625 1.27875 1.8125 1.9375 C3.90810337 4.20310389 3.90810337 4.20310389 7 5 C7 5.99 7 6.98 7 8 C5.68 7.67 4.36 7.34 3 7 C3 6.34 3 5.68 3 5 C2.01 4.67 1.02 4.34 0 4 C0 2.68 0 1.36 0 0 Z " fill="#E66B6E" transform="translate(415,252)"/>
<path d="M0 0 C0.33 1.32 0.66 2.64 1 4 C1.66 4 2.32 4 3 4 C3 7.63 3 11.26 3 15 C2.67 15 2.34 15 2 15 C1.67 12.03 1.34 9.06 1 6 C0.34 6 -0.32 6 -1 6 C-0.67 4.02 -0.34 2.04 0 0 Z " fill="#EA7C7F" transform="translate(156,219)"/>
<path d="M0 0 C3 1 3 1 5 4 C5.1953125 6.26171875 5.1953125 6.26171875 5.125 8.6875 C5.10695313 9.49574219 5.08890625 10.30398437 5.0703125 11.13671875 C5.03550781 12.05904297 5.03550781 12.05904297 5 13 C4.67 13 4.34 13 4 13 C3.83723958 10.98177083 3.67447917 8.96354167 3.51171875 6.9453125 C3.12606964 4.60480784 3.12606964 4.60480784 0 3 C0 2.01 0 1.02 0 0 Z " fill="#E46267" transform="translate(378,201)"/>
<path d="M0 0 C0.33 0.99 0.66 1.98 1 3 C-1.3125 4.5625 -1.3125 4.5625 -4 6 C-4.99 5.67 -5.98 5.34 -7 5 C-6.34 5 -5.68 5 -5 5 C-4.731875 4.360625 -4.46375 3.72125 -4.1875 3.0625 C-3 1 -3 1 0 0 Z " fill="#DB666A" transform="translate(136,251)"/>
<path d="M0 0 C0.66 0.99 1.32 1.98 2 3 C1.67 3.66 1.34 4.32 1 5 C-2.0625 5.625 -2.0625 5.625 -5 6 C-5 5.34 -5 4.68 -5 4 C-3.35 3.34 -1.7 2.68 0 2 C0 1.34 0 0.68 0 0 Z " fill="#E46669" transform="translate(219,257)"/>
<path d="M0 0 C1.258125 0.12375 2.51625 0.2475 3.8125 0.375 C4.87404297 0.47941406 4.87404297 0.47941406 5.95703125 0.5859375 C8 1 8 1 11 3 C7.44706507 4.14947895 6.20023331 4.0868937 2.6875 2.5625 C1.800625 2.046875 0.91375 1.53125 0 1 C0 0.67 0 0.34 0 0 Z " fill="#EC6061" transform="translate(361,259)"/>
<path d="M0 0 C0 0.99 0 1.98 0 3 C-2.64 3.33 -5.28 3.66 -8 4 C-8 3.34 -8 2.68 -8 2 C-4.91190305 0.23537317 -3.76687864 0 0 0 Z " fill="#E46664" transform="translate(123,259)"/>
<path d="M0 0 C2.31 0 4.62 0 7 0 C7 0.66 7 1.32 7 2 C7.66 2 8.32 2 9 2 C9 2.66 9 3.32 9 4 C5.17902761 3.46930939 2.93828597 2.50298434 0 0 Z " fill="#EB6668" transform="translate(176,259)"/>
<path d="M0 0 C2.50298434 2.93828597 3.46930939 5.17902761 4 9 C3.01 8.67 2.02 8.34 1 8 C0.67 5.36 0.34 2.72 0 0 Z " fill="#ED4B54" transform="translate(186,238)"/>
<path d="M0 0 C1.32 0 2.64 0 4 0 C3.625 1.9375 3.625 1.9375 3 4 C2.01 4.495 2.01 4.495 1 5 C0.34 4.67 -0.32 4.34 -1 4 C-0.67 2.68 -0.34 1.36 0 0 Z " fill="#EA4848" transform="translate(383,219)"/>
<path d="M0 0 C1 2 1 2 0.0625 5.125 C-0.288125 6.07375 -0.63875 7.0225 -1 8 C-1.66 8 -2.32 8 -3 8 C-3 8.66 -3 9.32 -3 10 C-3.66 9.67 -4.32 9.34 -5 9 C-3.35 6.03 -1.7 3.06 0 0 Z " fill="#E66668" transform="translate(250,200)"/>
<path d="M0 0 C2.475 0.99 2.475 0.99 5 2 C5 4.31 5 6.62 5 9 C2.3534665 6.3534665 1.40058003 3.43778736 0 0 Z " fill="#EA7070" transform="translate(280,191)"/>
<path d="M0 0 C-0.33 0.66 -0.66 1.32 -1 2 C-0.34 2 0.32 2 1 2 C0.67 2.99 0.34 3.98 0 5 C-0.66 4.67 -1.32 4.34 -2 4 C-2 3.01 -2 2.02 -2 1 C-3.32 0.67 -4.64 0.34 -6 0 C-3.50907189 -1.24546405 -2.58919267 -0.7767578 0 0 Z " fill="#E75F62" transform="translate(383,221)"/>
</svg>
